# xmcd
#
# Track frame offsets:
#	150
#	11757
#	21258
#	32678
#	43604
#	56179
#	76705
#	86771
#	96101
#	108268
#	124007
#	134942
#
# Disc length: 1989 seconds
#
# Revision: 0
# Processed by: cddbd v1.5.1PL2 Copyright (c) Steve Scherf et al.
# Submitted via: dBpowerAMP V4.0
#
DISCID=9c07c30c
DTITLE=Various  - Janda Country Greats Vol 1
DYEAR=1900
DGENRE=Country
TTITLE0=Patsy Kline - Walking after Midnight 
TTITLE1=Jeannie C Riley - The Girl Most Likely 
TTITLE2=Johnny Horton - All for the love of a girl 
TTITLE3=Carl Belew - am i that easy to forget 
TTITLE4=Bobby Bare - When love is gone 
TTITLE5=Glen Campbell - Amazing Grace 
TTITLE6=Dave Dudly - Six days on the road 
TTITLE7=Faron Young - Hello Wallis 
TTITLE8=Johnny Cash - Give my love to rose 
TTITLE9=Glen Campbell - I'm so lonesome 
TTITLE10=Rodger Miller - King of the road 
TTITLE11=Glen Campbell - Rhinstone Cowboy
EXTD=
EXTT0=
EXTT1=
EXTT2=
EXTT3=
EXTT4=
EXTT5=
EXTT6=
EXTT7=
EXTT8=
EXTT9=
EXTT10=
EXTT11=
PLAYORDER=
